<mxfile host="app.diagrams.net" modified="2024-07-10T22:35:10.933Z" agent="Mozilla/5.0 (Windows NT 10.0; Win64; x64) AppleWebKit/537.36 (KHTML, like Gecko) Chrome/126.0.0.0 Safari/537.36" etag="tNcR0poSMIktzox1Au6c" version="24.6.4" type="github">
  <diagram id="C5RBs43oDa-KdzZeNtuy" name="Page-1">
    <mxGraphModel dx="880" dy="426" grid="1" gridSize="10" guides="1" tooltips="1" connect="1" arrows="1" fold="1" page="1" pageScale="1" pageWidth="827" pageHeight="1169" math="0" shadow="0">
      <root>
        <mxCell id="WIyWlLk6GJQsqaUBKTNV-0" />
        <mxCell id="WIyWlLk6GJQsqaUBKTNV-1" parent="WIyWlLk6GJQsqaUBKTNV-0" />
        <mxCell id="plJLBdTcpujPEXBdIlL--0" value="iPhone&lt;div&gt;&lt;br&gt;&lt;/div&gt;&lt;div&gt;+ main(String args[]);&lt;/div&gt;" style="rounded=0;whiteSpace=wrap;html=1;" vertex="1" parent="WIyWlLk6GJQsqaUBKTNV-1">
          <mxGeometry x="290" y="770" width="120" height="60" as="geometry" />
        </mxCell>
        <mxCell id="plJLBdTcpujPEXBdIlL--5" value="&lt;p style=&quot;margin:0px;margin-top:4px;text-align:center;&quot;&gt;&lt;i&gt;&amp;lt;&amp;lt;Interface&amp;gt;&amp;gt;&lt;/i&gt;&lt;br&gt;&lt;b&gt;App&lt;/b&gt;&lt;/p&gt;&lt;hr size=&quot;1&quot; style=&quot;border-style:solid;&quot;&gt;&lt;p style=&quot;margin:0px;margin-left:4px;&quot;&gt;&lt;br&gt;&lt;/p&gt;&lt;hr size=&quot;1&quot; style=&quot;border-style:solid;&quot;&gt;&lt;div style=&quot;&quot;&gt;+installApp(); : void&lt;/div&gt;&lt;div style=&quot;&quot;&gt;+openApp(); : void&lt;/div&gt;&lt;div style=&quot;&quot;&gt;+closeApp(); : void&lt;/div&gt;&lt;div style=&quot;&quot;&gt;+deleteApp(); : void&lt;/div&gt;" style="verticalAlign=top;align=left;overflow=fill;html=1;whiteSpace=wrap;" vertex="1" parent="WIyWlLk6GJQsqaUBKTNV-1">
          <mxGeometry x="300" y="190" width="190" height="140" as="geometry" />
        </mxCell>
        <mxCell id="plJLBdTcpujPEXBdIlL--6" value="iPod" style="swimlane;fontStyle=1;align=center;verticalAlign=top;childLayout=stackLayout;horizontal=1;startSize=26;horizontalStack=0;resizeParent=1;resizeParentMax=0;resizeLast=0;collapsible=1;marginBottom=0;whiteSpace=wrap;html=1;" vertex="1" parent="WIyWlLk6GJQsqaUBKTNV-1">
          <mxGeometry x="50" y="440" width="190" height="300" as="geometry" />
        </mxCell>
        <mxCell id="plJLBdTcpujPEXBdIlL--7" value="&lt;div&gt;- playlist :&amp;nbsp;&lt;span style=&quot;background-color: initial;&quot;&gt;ArrayList&amp;lt;Song&amp;gt;&lt;/span&gt;&lt;span style=&quot;background-color: initial;&quot;&gt;&amp;nbsp;&lt;/span&gt;&lt;/div&gt;&lt;div&gt;- song : Song&lt;/div&gt;&lt;div&gt;- isOpen : boolean&lt;/div&gt;&lt;div&gt;- playingMusic : boolean&amp;nbsp;&lt;/div&gt;&lt;div&gt;&amp;nbsp;-NAME_APP : string&lt;/div&gt;" style="text;strokeColor=none;fillColor=none;align=left;verticalAlign=top;spacingLeft=4;spacingRight=4;overflow=hidden;rotatable=0;points=[[0,0.5],[1,0.5]];portConstraint=eastwest;whiteSpace=wrap;html=1;" vertex="1" parent="plJLBdTcpujPEXBdIlL--6">
          <mxGeometry y="26" width="190" height="104" as="geometry" />
        </mxCell>
        <mxCell id="plJLBdTcpujPEXBdIlL--8" value="" style="line;strokeWidth=1;fillColor=none;align=left;verticalAlign=middle;spacingTop=-1;spacingLeft=3;spacingRight=3;rotatable=0;labelPosition=right;points=[];portConstraint=eastwest;strokeColor=inherit;" vertex="1" parent="plJLBdTcpujPEXBdIlL--6">
          <mxGeometry y="130" width="190" height="8" as="geometry" />
        </mxCell>
        <mxCell id="plJLBdTcpujPEXBdIlL--9" value="&lt;div&gt;+installApp() void;&lt;/div&gt;&lt;div&gt;+openApp() void;&lt;/div&gt;&lt;div&gt;+closeApp() void;&lt;/div&gt;&lt;div&gt;+deleteApp() void;&lt;/div&gt;&lt;div&gt;+&amp;nbsp;addSongtoPlaylist(String) : void&lt;/div&gt;&lt;div&gt;+&amp;nbsp;playPlaylist() : void&lt;/div&gt;&lt;div&gt;+&amp;nbsp;getSong() : void;&lt;/div&gt;&lt;div&gt;+&amp;nbsp;setSong (String, String) : void;&lt;/div&gt;&lt;div&gt;+&amp;nbsp;playSong () : String;&lt;/div&gt;&lt;div&gt;+ pauseSong () : void;&lt;/div&gt;&lt;div&gt;&lt;br&gt;&lt;/div&gt;" style="text;strokeColor=none;fillColor=none;align=left;verticalAlign=top;spacingLeft=4;spacingRight=4;overflow=hidden;rotatable=0;points=[[0,0.5],[1,0.5]];portConstraint=eastwest;whiteSpace=wrap;html=1;" vertex="1" parent="plJLBdTcpujPEXBdIlL--6">
          <mxGeometry y="138" width="190" height="162" as="geometry" />
        </mxCell>
        <mxCell id="plJLBdTcpujPEXBdIlL--10" value="Browser" style="swimlane;fontStyle=1;align=center;verticalAlign=top;childLayout=stackLayout;horizontal=1;startSize=26;horizontalStack=0;resizeParent=1;resizeParentMax=0;resizeLast=0;collapsible=1;marginBottom=0;whiteSpace=wrap;html=1;" vertex="1" parent="WIyWlLk6GJQsqaUBKTNV-1">
          <mxGeometry x="310" y="440" width="170" height="240" as="geometry" />
        </mxCell>
        <mxCell id="plJLBdTcpujPEXBdIlL--11" value="&lt;div&gt;- isOpen : boolean&lt;/div&gt;&lt;div&gt;-NAME_APP : string&lt;br&gt;&lt;/div&gt;" style="text;strokeColor=none;fillColor=none;align=left;verticalAlign=top;spacingLeft=4;spacingRight=4;overflow=hidden;rotatable=0;points=[[0,0.5],[1,0.5]];portConstraint=eastwest;whiteSpace=wrap;html=1;" vertex="1" parent="plJLBdTcpujPEXBdIlL--10">
          <mxGeometry y="26" width="170" height="54" as="geometry" />
        </mxCell>
        <mxCell id="plJLBdTcpujPEXBdIlL--12" value="" style="line;strokeWidth=1;fillColor=none;align=left;verticalAlign=middle;spacingTop=-1;spacingLeft=3;spacingRight=3;rotatable=0;labelPosition=right;points=[];portConstraint=eastwest;strokeColor=inherit;" vertex="1" parent="plJLBdTcpujPEXBdIlL--10">
          <mxGeometry y="80" width="170" height="8" as="geometry" />
        </mxCell>
        <mxCell id="plJLBdTcpujPEXBdIlL--13" value="+ Browser(String);&lt;div&gt;+&amp;nbsp;newTab(String) : void&lt;/div&gt;&lt;div&gt;+&amp;nbsp;checkConnection() : void&lt;/div&gt;&lt;div&gt;+&amp;nbsp;closeTab() : void&lt;/div&gt;&lt;div&gt;&lt;div&gt;+installApp(); : void&lt;/div&gt;&lt;div&gt;+openApp(); : void&lt;/div&gt;&lt;div&gt;+closeApp(); : void&lt;/div&gt;&lt;div&gt;+deleteApp(); : void&lt;/div&gt;&lt;/div&gt;&lt;div&gt;&lt;br&gt;&lt;/div&gt;&lt;div&gt;&lt;br&gt;&lt;/div&gt;" style="text;strokeColor=none;fillColor=none;align=left;verticalAlign=top;spacingLeft=4;spacingRight=4;overflow=hidden;rotatable=0;points=[[0,0.5],[1,0.5]];portConstraint=eastwest;whiteSpace=wrap;html=1;" vertex="1" parent="plJLBdTcpujPEXBdIlL--10">
          <mxGeometry y="88" width="170" height="152" as="geometry" />
        </mxCell>
        <mxCell id="plJLBdTcpujPEXBdIlL--14" value="Phone" style="swimlane;fontStyle=1;align=center;verticalAlign=top;childLayout=stackLayout;horizontal=1;startSize=26;horizontalStack=0;resizeParent=1;resizeParentMax=0;resizeLast=0;collapsible=1;marginBottom=0;whiteSpace=wrap;html=1;" vertex="1" parent="WIyWlLk6GJQsqaUBKTNV-1">
          <mxGeometry x="550" y="440" width="160" height="178" as="geometry" />
        </mxCell>
        <mxCell id="plJLBdTcpujPEXBdIlL--15" value="&lt;div&gt;- isOpen : boolean&lt;/div&gt;&lt;div&gt;-NAME_APP : string&lt;/div&gt;" style="text;strokeColor=none;fillColor=none;align=left;verticalAlign=top;spacingLeft=4;spacingRight=4;overflow=hidden;rotatable=0;points=[[0,0.5],[1,0.5]];portConstraint=eastwest;whiteSpace=wrap;html=1;" vertex="1" parent="plJLBdTcpujPEXBdIlL--14">
          <mxGeometry y="26" width="160" height="44" as="geometry" />
        </mxCell>
        <mxCell id="plJLBdTcpujPEXBdIlL--16" value="" style="line;strokeWidth=1;fillColor=none;align=left;verticalAlign=middle;spacingTop=-1;spacingLeft=3;spacingRight=3;rotatable=0;labelPosition=right;points=[];portConstraint=eastwest;strokeColor=inherit;" vertex="1" parent="plJLBdTcpujPEXBdIlL--14">
          <mxGeometry y="70" width="160" height="8" as="geometry" />
        </mxCell>
        <mxCell id="plJLBdTcpujPEXBdIlL--17" value="+ dial(String) : void&lt;div&gt;&lt;div&gt;+installApp(); : void&lt;/div&gt;&lt;div&gt;+openApp(); : void&lt;/div&gt;&lt;div&gt;+closeApp(); : void&lt;/div&gt;&lt;div&gt;+deleteApp(); : void&lt;/div&gt;&lt;/div&gt;" style="text;strokeColor=none;fillColor=none;align=left;verticalAlign=top;spacingLeft=4;spacingRight=4;overflow=hidden;rotatable=0;points=[[0,0.5],[1,0.5]];portConstraint=eastwest;whiteSpace=wrap;html=1;" vertex="1" parent="plJLBdTcpujPEXBdIlL--14">
          <mxGeometry y="78" width="160" height="100" as="geometry" />
        </mxCell>
        <mxCell id="plJLBdTcpujPEXBdIlL--18" value="" style="endArrow=block;dashed=1;endFill=0;endSize=12;html=1;rounded=0;entryX=0.195;entryY=1.014;entryDx=0;entryDy=0;entryPerimeter=0;exitX=0.5;exitY=0;exitDx=0;exitDy=0;" edge="1" parent="WIyWlLk6GJQsqaUBKTNV-1" source="plJLBdTcpujPEXBdIlL--6" target="plJLBdTcpujPEXBdIlL--5">
          <mxGeometry width="160" relative="1" as="geometry">
            <mxPoint x="210" y="440" as="sourcePoint" />
            <mxPoint x="270" y="330" as="targetPoint" />
          </mxGeometry>
        </mxCell>
        <mxCell id="plJLBdTcpujPEXBdIlL--19" value="" style="endArrow=block;dashed=1;endFill=0;endSize=12;html=1;rounded=0;entryX=0.642;entryY=1.021;entryDx=0;entryDy=0;entryPerimeter=0;" edge="1" parent="WIyWlLk6GJQsqaUBKTNV-1">
          <mxGeometry width="160" relative="1" as="geometry">
            <mxPoint x="394.52" y="437.06" as="sourcePoint" />
            <mxPoint x="394.5" y="330.00000000000006" as="targetPoint" />
          </mxGeometry>
        </mxCell>
        <mxCell id="plJLBdTcpujPEXBdIlL--20" value="" style="endArrow=block;dashed=1;endFill=0;endSize=12;html=1;rounded=0;entryX=0.75;entryY=1;entryDx=0;entryDy=0;exitX=0.313;exitY=-0.017;exitDx=0;exitDy=0;exitPerimeter=0;" edge="1" parent="WIyWlLk6GJQsqaUBKTNV-1" source="plJLBdTcpujPEXBdIlL--14" target="plJLBdTcpujPEXBdIlL--5">
          <mxGeometry width="160" relative="1" as="geometry">
            <mxPoint x="520" y="410" as="sourcePoint" />
            <mxPoint x="680" y="410" as="targetPoint" />
          </mxGeometry>
        </mxCell>
        <mxCell id="plJLBdTcpujPEXBdIlL--21" value="App" style="shape=folder;fontStyle=1;spacingTop=10;tabWidth=40;tabHeight=14;tabPosition=left;html=1;whiteSpace=wrap;" vertex="1" parent="WIyWlLk6GJQsqaUBKTNV-1">
          <mxGeometry x="300" y="140" width="70" height="50" as="geometry" />
        </mxCell>
        <mxCell id="plJLBdTcpujPEXBdIlL--22" value="Data" style="shape=folder;fontStyle=1;spacingTop=10;tabWidth=40;tabHeight=14;tabPosition=left;html=1;whiteSpace=wrap;" vertex="1" parent="WIyWlLk6GJQsqaUBKTNV-1">
          <mxGeometry x="20" y="60" width="70" height="50" as="geometry" />
        </mxCell>
        <mxCell id="plJLBdTcpujPEXBdIlL--27" value="Song" style="swimlane;fontStyle=1;align=center;verticalAlign=top;childLayout=stackLayout;horizontal=1;startSize=26;horizontalStack=0;resizeParent=1;resizeParentMax=0;resizeLast=0;collapsible=1;marginBottom=0;whiteSpace=wrap;html=1;" vertex="1" parent="WIyWlLk6GJQsqaUBKTNV-1">
          <mxGeometry x="20" y="110" width="160" height="190" as="geometry" />
        </mxCell>
        <mxCell id="plJLBdTcpujPEXBdIlL--28" value="- artist : String;&lt;div&gt;- song : String;&lt;/div&gt;" style="text;strokeColor=none;fillColor=none;align=left;verticalAlign=top;spacingLeft=4;spacingRight=4;overflow=hidden;rotatable=0;points=[[0,0.5],[1,0.5]];portConstraint=eastwest;whiteSpace=wrap;html=1;" vertex="1" parent="plJLBdTcpujPEXBdIlL--27">
          <mxGeometry y="26" width="160" height="44" as="geometry" />
        </mxCell>
        <mxCell id="plJLBdTcpujPEXBdIlL--29" value="" style="line;strokeWidth=1;fillColor=none;align=left;verticalAlign=middle;spacingTop=-1;spacingLeft=3;spacingRight=3;rotatable=0;labelPosition=right;points=[];portConstraint=eastwest;strokeColor=inherit;" vertex="1" parent="plJLBdTcpujPEXBdIlL--27">
          <mxGeometry y="70" width="160" height="8" as="geometry" />
        </mxCell>
        <mxCell id="plJLBdTcpujPEXBdIlL--30" value="+ Song (String);&lt;div&gt;+ setSong(String) : void;&lt;/div&gt;&lt;div&gt;+ setArtist(String) : void;&lt;/div&gt;&lt;div&gt;+ getSong() : String;&lt;/div&gt;&lt;div&gt;+ getArtist() : String;&lt;/div&gt;&lt;div&gt;+ toString() : String;&lt;/div&gt;" style="text;strokeColor=none;fillColor=none;align=left;verticalAlign=top;spacingLeft=4;spacingRight=4;overflow=hidden;rotatable=0;points=[[0,0.5],[1,0.5]];portConstraint=eastwest;whiteSpace=wrap;html=1;" vertex="1" parent="plJLBdTcpujPEXBdIlL--27">
          <mxGeometry y="78" width="160" height="112" as="geometry" />
        </mxCell>
        <mxCell id="plJLBdTcpujPEXBdIlL--32" value="" style="endArrow=diamondThin;endFill=0;endSize=24;html=1;rounded=0;entryX=0.411;entryY=-0.003;entryDx=0;entryDy=0;entryPerimeter=0;exitX=0.675;exitY=0.982;exitDx=0;exitDy=0;exitPerimeter=0;" edge="1" parent="WIyWlLk6GJQsqaUBKTNV-1" source="plJLBdTcpujPEXBdIlL--30" target="plJLBdTcpujPEXBdIlL--6">
          <mxGeometry width="160" relative="1" as="geometry">
            <mxPoint x="150" y="330" as="sourcePoint" />
            <mxPoint x="60" y="360" as="targetPoint" />
            <Array as="points">
              <mxPoint x="128" y="380" />
            </Array>
          </mxGeometry>
        </mxCell>
        <mxCell id="plJLBdTcpujPEXBdIlL--33" value="" style="endArrow=open;endFill=1;endSize=12;html=1;rounded=0;exitX=1;exitY=0.383;exitDx=0;exitDy=0;exitPerimeter=0;" edge="1" parent="WIyWlLk6GJQsqaUBKTNV-1" source="plJLBdTcpujPEXBdIlL--0">
          <mxGeometry width="160" relative="1" as="geometry">
            <mxPoint x="580" y="770" as="sourcePoint" />
            <mxPoint x="650" y="618" as="targetPoint" />
          </mxGeometry>
        </mxCell>
        <mxCell id="plJLBdTcpujPEXBdIlL--34" value="" style="endArrow=open;endFill=1;endSize=12;html=1;rounded=0;entryX=0.412;entryY=1;entryDx=0;entryDy=0;entryPerimeter=0;exitX=0.5;exitY=0;exitDx=0;exitDy=0;" edge="1" parent="WIyWlLk6GJQsqaUBKTNV-1" source="plJLBdTcpujPEXBdIlL--0" target="plJLBdTcpujPEXBdIlL--13">
          <mxGeometry width="160" relative="1" as="geometry">
            <mxPoint x="370.03" y="770" as="sourcePoint" />
            <mxPoint x="370" y="683.04" as="targetPoint" />
          </mxGeometry>
        </mxCell>
        <mxCell id="plJLBdTcpujPEXBdIlL--35" value="" style="endArrow=open;endFill=1;endSize=12;html=1;rounded=0;" edge="1" parent="WIyWlLk6GJQsqaUBKTNV-1">
          <mxGeometry width="160" relative="1" as="geometry">
            <mxPoint x="290" y="793" as="sourcePoint" />
            <mxPoint x="150" y="740" as="targetPoint" />
          </mxGeometry>
        </mxCell>
        <mxCell id="plJLBdTcpujPEXBdIlL--36" value="instantiate objects at runtime" style="text;strokeColor=none;align=center;fillColor=none;html=1;verticalAlign=middle;whiteSpace=wrap;rounded=0;" vertex="1" parent="WIyWlLk6GJQsqaUBKTNV-1">
          <mxGeometry x="380" y="710" width="100" height="30" as="geometry" />
        </mxCell>
      </root>
    </mxGraphModel>
  </diagram>
</mxfile>
